# Original Lucent geometry; unit radius; flat normals
v 0.5773503 0.5773503 0.5773503
v -0.5773503 0.5773503 -0.5773503
v -0.5773503 -0.5773503 0.5773503
v 0.5773503 0.5773503 0.5773503
v -0.5773503 -0.5773503 0.5773503
v 0.5773503 -0.5773503 -0.5773503
v 0.5773503 0.5773503 0.5773503
v 0.5773503 -0.5773503 -0.5773503
v -0.5773503 0.5773503 -0.5773503
v -0.5773503 -0.5773503 0.5773503
v -0.5773503 0.5773503 -0.5773503
v 0.5773503 -0.5773503 -0.5773503
vn -0.5773503 0.5773503 0.5773503
vn -0.5773503 0.5773503 0.5773503
vn -0.5773503 0.5773503 0.5773503
vn 0.5773503 -0.5773503 0.5773503
vn 0.5773503 -0.5773503 0.5773503
vn 0.5773503 -0.5773503 0.5773503
vn 0.5773503 0.5773503 -0.5773503
vn 0.5773503 0.5773503 -0.5773503
vn 0.5773503 0.5773503 -0.5773503
vn -0.5773503 -0.5773503 -0.5773503
vn -0.5773503 -0.5773503 -0.5773503
vn -0.5773503 -0.5773503 -0.5773503
f 1//1 2//2 3//3
f 4//4 5//5 6//6
f 7//7 8//8 9//9
f 10//10 11//11 12//12
