# Original Lucent geometry; unit radius; flat normals
v 0 0 -1
v 0.7391036 0.3061468 0
v 0.8 0 0
v 0 0 1
v 0.8 0 0
v 0.7391036 0.3061468 0
v 0 0 -1
v 0.5656855 0.5656855 0
v 0.7391036 0.3061468 0
v 0 0 1
v 0.7391036 0.3061468 0
v 0.5656855 0.5656855 0
v 0 0 -1
v 0.3061467 0.7391036 0
v 0.5656855 0.5656855 0
v 0 0 1
v 0.5656855 0.5656855 0
v 0.3061467 0.7391036 0
v 0 0 -1
v -3.496911E-08 0.8 0
v 0.3061467 0.7391036 0
v 0 0 1
v 0.3061467 0.7391036 0
v -3.496911E-08 0.8 0
v 0 0 -1
v -0.3061468 0.7391036 0
v -3.496911E-08 0.8 0
v 0 0 1
v -3.496911E-08 0.8 0
v -0.3061468 0.7391036 0
v 0 0 -1
v -0.5656855 0.5656855 0
v -0.3061468 0.7391036 0
v 0 0 1
v -0.3061468 0.7391036 0
v -0.5656855 0.5656855 0
v 0 0 -1
v -0.7391037 0.3061466 0
v -0.5656855 0.5656855 0
v 0 0 1
v -0.5656855 0.5656855 0
v -0.7391037 0.3061466 0
v 0 0 -1
v -0.8 -6.993822E-08 0
v -0.7391037 0.3061466 0
v 0 0 1
v -0.7391037 0.3061466 0
v -0.8 -6.993822E-08 0
v 0 0 -1
v -0.7391036 -0.3061467 0
v -0.8 -6.993822E-08 0
v 0 0 1
v -0.8 -6.993822E-08 0
v -0.7391036 -0.3061467 0
v 0 0 -1
v -0.5656853 -0.5656855 0
v -0.7391036 -0.3061467 0
v 0 0 1
v -0.7391036 -0.3061467 0
v -0.5656853 -0.5656855 0
v 0 0 -1
v -0.3061465 -0.7391037 0
v -0.5656853 -0.5656855 0
v 0 0 1
v -0.5656853 -0.5656855 0
v -0.3061465 -0.7391037 0
v 0 0 -1
v 9.539905E-09 -0.8 0
v -0.3061465 -0.7391037 0
v 0 0 1
v -0.3061465 -0.7391037 0
v 9.539905E-09 -0.8 0
v 0 0 -1
v 0.3061469 -0.7391036 0
v 9.539905E-09 -0.8 0
v 0 0 1
v 9.539905E-09 -0.8 0
v 0.3061469 -0.7391036 0
v 0 0 -1
v 0.5656856 -0.5656852 0
v 0.3061469 -0.7391036 0
v 0 0 1
v 0.3061469 -0.7391036 0
v 0.5656856 -0.5656852 0
v 0 0 -1
v 0.7391037 -0.3061467 0
v 0.5656856 -0.5656852 0
v 0 0 1
v 0.5656856 -0.5656852 0
v 0.7391037 -0.3061467 0
v 0 0 -1
v 0.8 1.398764E-07 0
v 0.7391037 -0.3061467 0
v 0 0 1
v 0.7391037 -0.3061467 0
v 0.8 1.398764E-07 0
vn 0.7716164 0.1534841 -0.6172932
vn 0.7716164 0.1534841 -0.6172932
vn 0.7716164 0.1534841 -0.6172932
vn 0.7716164 0.1534841 0.6172932
vn 0.7716164 0.1534841 0.6172932
vn 0.7716164 0.1534841 0.6172932
vn 0.6541448 0.4370855 -0.6172931
vn 0.6541448 0.4370855 -0.6172931
vn 0.6541448 0.4370855 -0.6172931
vn 0.6541448 0.4370855 0.6172931
vn 0.6541448 0.4370855 0.6172931
vn 0.6541448 0.4370855 0.6172931
vn 0.4370855 0.6541449 -0.6172931
vn 0.4370855 0.6541449 -0.6172931
vn 0.4370855 0.6541449 -0.6172931
vn 0.4370855 0.6541449 0.6172931
vn 0.4370855 0.6541449 0.6172931
vn 0.4370855 0.6541449 0.6172931
vn 0.1534841 0.7716164 -0.6172932
vn 0.1534841 0.7716164 -0.6172932
vn 0.1534841 0.7716164 -0.6172932
vn 0.1534841 0.7716164 0.6172932
vn 0.1534841 0.7716164 0.6172932
vn 0.1534841 0.7716164 0.6172932
vn -0.1534841 0.7716163 -0.6172931
vn -0.1534841 0.7716163 -0.6172931
vn -0.1534841 0.7716163 -0.6172931
vn -0.1534841 0.7716163 0.6172931
vn -0.1534841 0.7716163 0.6172931
vn -0.1534841 0.7716163 0.6172931
vn -0.4370855 0.6541448 -0.6172931
vn -0.4370855 0.6541448 -0.6172931
vn -0.4370855 0.6541448 -0.6172931
vn -0.4370855 0.6541448 0.6172931
vn -0.4370855 0.6541448 0.6172931
vn -0.4370855 0.6541448 0.6172931
vn -0.6541448 0.4370855 -0.6172931
vn -0.6541448 0.4370855 -0.6172931
vn -0.6541448 0.4370855 -0.6172931
vn -0.6541448 0.4370855 0.6172931
vn -0.6541448 0.4370855 0.6172931
vn -0.6541448 0.4370855 0.6172931
vn -0.7716164 0.1534838 -0.6172931
vn -0.7716164 0.1534838 -0.6172931
vn -0.7716164 0.1534838 -0.6172931
vn -0.7716164 0.1534838 0.6172931
vn -0.7716164 0.1534838 0.6172931
vn -0.7716164 0.1534838 0.6172931
vn -0.7716163 -0.1534841 -0.6172931
vn -0.7716163 -0.1534841 -0.6172931
vn -0.7716163 -0.1534841 -0.6172931
vn -0.7716163 -0.1534841 0.6172931
vn -0.7716163 -0.1534841 0.6172931
vn -0.7716163 -0.1534841 0.6172931
vn -0.6541448 -0.4370856 -0.6172931
vn -0.6541448 -0.4370856 -0.6172931
vn -0.6541448 -0.4370856 -0.6172931
vn -0.6541448 -0.4370856 0.6172931
vn -0.6541448 -0.4370856 0.6172931
vn -0.6541448 -0.4370856 0.6172931
vn -0.4370854 -0.6541449 -0.6172931
vn -0.4370854 -0.6541449 -0.6172931
vn -0.4370854 -0.6541449 -0.6172931
vn -0.4370854 -0.6541449 0.6172931
vn -0.4370854 -0.6541449 0.6172931
vn -0.4370854 -0.6541449 0.6172931
vn -0.1534839 -0.7716164 -0.6172931
vn -0.1534839 -0.7716164 -0.6172931
vn -0.1534839 -0.7716164 -0.6172931
vn -0.1534839 -0.7716164 0.6172931
vn -0.1534839 -0.7716164 0.6172931
vn -0.1534839 -0.7716164 0.6172931
vn 0.1534842 -0.7716165 -0.6172931
vn 0.1534842 -0.7716165 -0.6172931
vn 0.1534842 -0.7716165 -0.6172931
vn 0.1534842 -0.7716165 0.6172931
vn 0.1534842 -0.7716165 0.6172931
vn 0.1534842 -0.7716165 0.6172931
vn 0.4370857 -0.6541446 -0.6172931
vn 0.4370857 -0.6541446 -0.6172931
vn 0.4370857 -0.6541446 -0.6172931
vn 0.4370857 -0.6541446 0.6172931
vn 0.4370857 -0.6541446 0.6172931
vn 0.4370857 -0.6541446 0.6172931
vn 0.6541448 -0.4370855 -0.6172932
vn 0.6541448 -0.4370855 -0.6172932
vn 0.6541448 -0.4370855 -0.6172932
vn 0.6541448 -0.4370855 0.6172932
vn 0.6541448 -0.4370855 0.6172932
vn 0.6541448 -0.4370855 0.6172932
vn 0.7716165 -0.1534839 -0.6172931
vn 0.7716165 -0.1534839 -0.6172931
vn 0.7716165 -0.1534839 -0.6172931
vn 0.7716165 -0.1534839 0.6172931
vn 0.7716165 -0.1534839 0.6172931
vn 0.7716165 -0.1534839 0.6172931
f 1//1 2//2 3//3
f 4//4 5//5 6//6
f 7//7 8//8 9//9
f 10//10 11//11 12//12
f 13//13 14//14 15//15
f 16//16 17//17 18//18
f 19//19 20//20 21//21
f 22//22 23//23 24//24
f 25//25 26//26 27//27
f 28//28 29//29 30//30
f 31//31 32//32 33//33
f 34//34 35//35 36//36
f 37//37 38//38 39//39
f 40//40 41//41 42//42
f 43//43 44//44 45//45
f 46//46 47//47 48//48
f 49//49 50//50 51//51
f 52//52 53//53 54//54
f 55//55 56//56 57//57
f 58//58 59//59 60//60
f 61//61 62//62 63//63
f 64//64 65//65 66//66
f 67//67 68//68 69//69
f 70//70 71//71 72//72
f 73//73 74//74 75//75
f 76//76 77//77 78//78
f 79//79 80//80 81//81
f 82//82 83//83 84//84
f 85//85 86//86 87//87
f 88//88 89//89 90//90
f 91//91 92//92 93//93
f 94//94 95//95 96//96
